<svg xmlns="http://www.w3.org/2000/svg" viewBox="0 0 455 455"><path d="M160,382C86,350,37,262,68,172C99,83,197,36,286,69c88,33,132,131,98,219c-35,91-131,123-203,100c5-13,11-26,15-39c4-13,7-27,10-41c2,2,5,5,8,7c15,12,33,13,52,9c19-4,35-16,47-32c19-28,26-60,21-93c-4-34-25-59-57-72c-48-19-94-12-134,22c-30,26-40,72-26,107c5,12,13,21,25,27c6,2,8,1,10-4c0-0,0-0,0-1c3-9,2-16-3-25c-11-15-9-34-3-51c10-33,40-55,75-56c9-0,19,0,28,2c27,6,44,27,46,55c1,22-2,43-11,64c-4,10-11,18-20,25c-8,5-18,8-28,5c-14-3-22-16-18-31c3-14,8-29,12-44c1-6,2-13,1-19c-1-17-18-25-33-17c-10,6-16,16-18,27c-2,11-1,23,2,35c0,2,0,5,0,7c-7,30-14,61-21,92c-1,9-1,18-2,27C160,377,160,379,160,382z"/></svg>