<svg xmlns="http://www.w3.org/2000/svg" viewBox="0 0 512 512"><path d="M352,141c0,26,21,48,48,48c26,0,48-21,48-48s-21-48-48-48C373,93,352,114,352,141z M479,62c-43-43-114-43-158,0c-17,17-28,40-31,63l0,0L186,280c-13,0-27,4-39,10l-78-61c-18-14-44-11-58,7c-14,18-11,44,7,58l77,60c-8,33,0,70,26,96c39,39,103,39,142,0c24-24,33-57,28-89l124-111l-0-0c23-3,45-13,63-31C522,176,522,106,479,62z M192,448c-37,0-67-30-67-67c0-0,0-0,0-1l33,26c7,6,16,8,25,8c12,0,24-5,33-16c14-18,11-44-7-58l-31-24c4-0,9-1,13-1c37,0,67,30,67,67C259,418,229,448,192,448z M400,221c-44,0-80-35-80-80s35-80,80-80c44,0,80,35,80,80S444,221,400,221z"/></svg>