<svg xmlns = "http://www.w3.org/2000/svg"
     viewBox = "0 0 364 364"
     style = "fill:#c38">
	<path d = "M244,83H119c-19,0-36,16-36,36v124c0,19,16,36,36,36h124c19,0,36-16,36-36V119C280,99,264,83,244,83z M181,246c-35,0-64-29-64-64c0-35,29-64,64-64c35,0,64,29,64,64C246,217,217,246,181,246z M248,130c-8,0-15-6-15-15c0-8,6-15,15-15c8,0,15,6,15,15C264,123,257,130,248,130z" />
	<path d = "M181,144c-20,0-37,16-37,37c0,20,16,37,37,37c20,0,37-16,37-37C219,161,202,144,181,144z" />
	<path d = "M0,0v364h364V0H0z M307,244c0,35-28,63-63,63H119c-35,0-63-28-63-63V119c0-35,28-63,63-63h124c35,0,63,28,63,63V244z" />
</svg>