<svg xmlns = "http://www.w3.org/2000/svg"
     viewBox = "0 0 455 455"
     style = "background-color:#08b">
	<path style = "fill:#fff"
	      d = "M107,69c20,0,38,17,38,38c-0,21-18,38-38,38c-20,0-38-16-38-38C68,86,86,69,107,69z" />
	<path style = "fill:#fff"
	      d = "M129,386H84c-5,0-10-4-10-10V185c0-5,4-10,10-10h44c5,0,10,4,10,10v190C139,381,135,386,129,386z" />
	<path style = "fill:#fff"
	      d = "M386,241c0-39-32-72-72-72h-11c-21,0-41,10-52,27c-1,1-2,3-3,5c-0-0-0-0-0-0v-23c0-2-1-4-4-4h-55c-2,0-4,1-4,4V382c0,2,1,4,4,4l57,0c2,0,4-1,4-4V264c0-20,16-37,36-37c10-0,19,4,26,10c6,6,10,15,10,26v117c0,2,1,4,4,4l57,0c2,0,4-1,4-4V241z" />
</svg>