<svg xmlns = "http://www.w3.org/2000/svg"
     viewBox = "0 0 216 198"
     style = "background-color: #fa0;">
	<path d = "m173,122 -18,0 -3,-19 -13,19 -18,0 11,11 -9,20 20,-11 16,12 -2,-19"
	      style = "fill:#fff" />
	<path d = "m185,118 -27,0 -4,-27 -15,26 -3,0c -1,-3 -2,-7 -2,-10 0,-4 0,-9 0,-15 0,-7 -2,-11 -8,-13l 0,-0c 12,-1 18,-10 18,-22 0,-17 -11,-20 -26,-20l -40,0 -17,80 21,0 6,-29 14,0c 7,0 10,3 10,10 0,5 -0,9 -0,13 0,1 0,5 1,6l 15,16 -13,28 28,-16 21,16 -3,-26 24,-17z m -77,-46 -17,0 4,-19 15,0c 5,0 11,1 11,8 0,8 -6,11 -14,11m 36,69 -19,11 9,-19 -11,-11 18,0 11,-19 3,19 18,0 -16,11 2,19 -15,-12z" />
</svg>