<svg xmlns="http://www.w3.org/2000/svg" viewBox="0 0 455 455" style="background-color:#468"><path fill="#fff" d="M118,138c10,26,24,52,42,75c2,3,5,5,8,7c4,3,9,2,11-3c2-5,3-17,3-22c0-15-0-25-0-41c-0-9-4-18-18-21c-4-0-4-4-2-8c6-7,14-8,23-9c14-0,29-0,44,0c5,0,12,0,17,1c7,1,11,7,13,14c0,3,0,7,0,11c-0,16-1,33-1,50c-0,6,0,13,1,19c1,8,8,11,14,4c7-8,14-17,21-26c11-17,20-35,28-55c3-10,7-12,17-12c20-0,40-0,60,0c3,0,7,0,10,1c5,1,7,6,6,11c-3,13-10,24-17,35c-12,17-25,34-38,51c-1,2-3,4-4,6c-4,8-4,13,2,20c10,11,22,21,33,33c7,8,14,17,21,27c7,12,2,23-11,25c-9,1-53,0-55,0c-11-0-22-4-30-12c-9-9-17-18-26-28c-2-2-5-5-8-7c-7-5-14-4-18,4c-2,7-5,26-5,28c-0,8-6,14-15,14c-28,1-55-1-81-15c-21-11-38-27-53-47c-23-30-42-63-59-97c-0-1-18-38-18-40c-1-5-0-11,4-13c3-1,60-0,61,0C107,125,114,129,118,138z"/></svg>